<mxfile host="app.diagrams.net" agent="Mozilla/5.0 (X11; Linux x86_64; rv:140.0) Gecko/20100101 Firefox/140.0" version="28.2.4">
  <diagram name="Page-1" id="MdtQHWE365CePKhpas0K">
    <mxGraphModel dx="705" dy="878" grid="1" gridSize="10" guides="1" tooltips="1" connect="1" arrows="1" fold="1" page="1" pageScale="1" pageWidth="827" pageHeight="1169" math="0" shadow="0">
      <root>
        <mxCell id="0" />
        <mxCell id="1" parent="0" />
        <mxCell id="swcF4yVY9mTizSjtmD6w-1" value="" style="group" vertex="1" connectable="0" parent="1">
          <mxGeometry x="144" y="484" width="540" height="200" as="geometry" />
        </mxCell>
        <mxCell id="swcF4yVY9mTizSjtmD6w-2" style="edgeStyle=none;curved=1;rounded=0;orthogonalLoop=1;jettySize=auto;html=1;exitX=1;exitY=1;exitDx=0;exitDy=0;fontSize=12;startSize=8;endSize=8;entryX=1;entryY=0;entryDx=0;entryDy=0;endArrow=none;endFill=0;" edge="1" parent="swcF4yVY9mTizSjtmD6w-1" source="swcF4yVY9mTizSjtmD6w-4" target="swcF4yVY9mTizSjtmD6w-7">
          <mxGeometry relative="1" as="geometry">
            <mxPoint x="400" y="130" as="targetPoint" />
          </mxGeometry>
        </mxCell>
        <mxCell id="swcF4yVY9mTizSjtmD6w-3" style="edgeStyle=none;curved=1;rounded=0;orthogonalLoop=1;jettySize=auto;html=1;exitX=0;exitY=1;exitDx=0;exitDy=0;entryX=0;entryY=0;entryDx=0;entryDy=0;fontSize=12;startSize=8;endSize=8;endArrow=none;endFill=0;" edge="1" parent="swcF4yVY9mTizSjtmD6w-1" source="swcF4yVY9mTizSjtmD6w-4" target="swcF4yVY9mTizSjtmD6w-6">
          <mxGeometry relative="1" as="geometry">
            <mxPoint x="-60" y="140" as="targetPoint" />
          </mxGeometry>
        </mxCell>
        <mxCell id="swcF4yVY9mTizSjtmD6w-4" value="&lt;div&gt;cabecera&lt;/div&gt;&lt;div&gt;(TCP / UDP)&lt;/div&gt;" style="rounded=0;whiteSpace=wrap;html=1;" vertex="1" parent="swcF4yVY9mTizSjtmD6w-1">
          <mxGeometry x="60" width="120" height="60" as="geometry" />
        </mxCell>
        <mxCell id="swcF4yVY9mTizSjtmD6w-5" value="payload" style="rounded=0;whiteSpace=wrap;html=1;fontColor=light-dark(#000000,#FFFF00);" vertex="1" parent="swcF4yVY9mTizSjtmD6w-1">
          <mxGeometry x="180" width="360" height="60" as="geometry" />
        </mxCell>
        <mxCell id="swcF4yVY9mTizSjtmD6w-6" value="&lt;div&gt;SRC&lt;/div&gt;&lt;div&gt;Port&lt;/div&gt;" style="rounded=0;whiteSpace=wrap;html=1;fontColor=light-dark(#000000,#00FFFF);" vertex="1" parent="swcF4yVY9mTizSjtmD6w-1">
          <mxGeometry y="140" width="120" height="60" as="geometry" />
        </mxCell>
        <mxCell id="swcF4yVY9mTizSjtmD6w-7" value="&lt;div&gt;DST&lt;/div&gt;&lt;div&gt;Port&lt;/div&gt;" style="rounded=0;whiteSpace=wrap;html=1;fontColor=light-dark(#000000,#FF00FF);" vertex="1" parent="swcF4yVY9mTizSjtmD6w-1">
          <mxGeometry x="120" y="140" width="120" height="60" as="geometry" />
        </mxCell>
      </root>
    </mxGraphModel>
  </diagram>
</mxfile>
